control3min_grf.mot
version=1
nRows=25
nColumns 19
inDegrees=yes
endheader
time	1_ground_force_vx	1_ground_force_vy	1_ground_force_vz	1_ground_force_px	1_ground_force_py	1_ground_force_pz	1_ground_torque_x	1_ground_torque_y	1_ground_torque_z	2_ground_force_vx	2_ground_force_vy	2_ground_force_vz	2_ground_force_px	2_ground_force_py	2_ground_force_pz	2_ground_torque_x	2_ground_torque_y	2_ground_torque_z
            1.253500	            0.185970	            1.977846	            1.200301	           -0.233013	            0.005581	           -0.255695	           -0.184048	           -0.045158	           -0.217566	           -0.048508	            0.370805	           -0.749516	           -0.232311	            0.006130	           -0.833667	           -0.244048	           -0.038894	            0.056520
            1.254000	            0.002568	            0.896610	            1.104407	           -0.233013	            0.005581	           -0.255695	           -0.179617	            0.038187	           -0.281394	            0.047830	           -0.365282	           -0.799112	           -0.232311	            0.006130	           -0.833667	           -0.168787	           -0.076299	            0.018652
            1.254500	            0.047922	            1.077671	            0.921642	           -0.233013	            0.005581	           -0.255695	           -0.228226	            0.056679	           -0.279246	            0.186324	            0.188172	           -0.937985	           -0.232311	            0.006130	           -0.833667	           -0.168855	           -0.057394	            0.018720
            1.255000	            0.140127	            1.977837	            1.200415	           -0.233013	            0.005581	           -0.255695	           -0.315736	           -0.053965	           -0.332020	            0.049762	           -0.917225	           -0.941867	           -0.232311	            0.006130	           -0.833667	           -0.243971	           -0.067051	           -0.000132
            1.255500	            0.323256	            1.437665	            1.060073	           -0.233013	            0.005581	           -0.255695	           -0.196542	           -0.063670	           -0.192932	           -0.047946	            0.187494	           -0.984813	           -0.232311	            0.006130	           -0.833667	           -0.206400	           -0.066915	           -0.000148
            1.256000	           -0.134344	            1.255935	            1.381429	           -0.233013	            0.005581	           -0.255695	           -0.266526	           -0.054559	           -0.231059	            0.138809	            0.372152	           -0.937308	           -0.232311	            0.006130	           -0.833667	           -0.169015	           -0.028565	           -0.113131
            1.256500	            0.002355	            1.437603	            1.060870	           -0.233013	            0.005581	           -0.255695	           -0.215212	           -0.045576	           -0.150097	            0.000192	           -0.180299	           -1.080003	           -0.232311	            0.006130	           -0.833667	           -0.206553	           -0.028970	           -0.037714
            1.257000	            0.048165	            1.617878	            1.061529	           -0.233013	            0.005581	           -0.255695	           -0.328237	           -0.035850	           -0.260615	            0.417812	            0.926448	           -1.170097	           -0.232311	            0.006130	           -0.833667	           -0.225134	           -0.085754	           -0.037908
            1.257500	            0.185272	            1.438425	            0.876991	           -0.233013	            0.005581	           -0.255695	           -0.207558	           -0.045174	           -0.217488	            0.187653	           -0.180124	           -0.939299	           -0.232311	            0.006130	           -0.833667	           -0.225304	           -0.038490	           -0.037739
            1.258000	            0.140031	            1.257168	            1.105611	           -0.233013	            0.005581	           -0.255695	           -0.292461	            0.010499	           -0.275381	            0.000233	           -0.180634	           -0.986147	           -0.232311	            0.006130	           -0.833667	           -0.187377	           -0.123832	            0.075042
            1.258500	            0.232613	            0.715012	            1.424056	           -0.233013	            0.005581	           -0.255695	           -0.286774	           -0.054554	           -0.177755	            0.139453	            0.188171	           -0.984893	           -0.232311	            0.006130	           -0.833667	           -0.206408	           -0.066848	           -0.018998
            1.259000	            0.231927	            1.977658	            1.246043	           -0.233013	            0.005581	           -0.255695	           -0.242256	           -0.109931	           -0.196946	           -0.182494	           -1.470516	           -0.943739	           -0.232311	            0.006130	           -0.833667	           -0.168949	           -0.029103	            0.037671
            1.259500	            0.231342	            1.438041	            0.968589	           -0.233013	            0.005581	           -0.255695	           -0.267586	           -0.082458	           -0.140352	            0.046295	            0.004688	           -1.267079	           -0.232311	            0.006130	           -0.833667	           -0.206408	           -0.066848	           -0.018998
            1.260000	            0.140112	            1.437237	            1.152240	           -0.233013	            0.005581	           -0.255695	           -0.294341	           -0.017553	           -0.200311	           -0.233229	           -0.366632	           -0.705136	           -0.232311	            0.006130	           -0.833667	           -0.168914	           -0.047739	           -0.037797
            1.260500	            0.048621	            1.617092	            1.244953	           -0.233013	            0.005581	           -0.255695	           -0.261153	           -0.053995	           -0.336052	           -0.092761	           -0.365455	           -0.892908	           -0.232311	            0.006130	           -0.833667	           -0.244048	           -0.038894	            0.056520
            1.261000	            0.094056	            1.978222	            1.108817	           -0.233013	            0.005581	           -0.255695	           -0.274008	           -0.045221	           -0.221252	            0.095926	           -0.732740	           -0.988158	           -0.232311	            0.006130	           -0.833667	           -0.168882	           -0.038825	            0.113038
            1.261500	            0.231519	            2.338780	            1.110022	           -0.233013	            0.005581	           -0.255695	           -0.387142	           -0.016966	           -0.327787	            0.281332	           -0.179619	           -0.986267	           -0.232311	            0.006130	           -0.833667	           -0.244081	           -0.038625	           -0.018881
            1.262000	            0.185823	            2.158308	            1.155218	           -0.233013	            0.005581	           -0.255695	           -0.257335	           -0.091311	           -0.236386	           -0.142290	            0.371137	           -0.937188	           -0.232311	            0.006130	           -0.833667	           -0.187691	           -0.047875	           -0.018939
            1.262500	           -0.180301	            1.256123	            1.335687	           -0.233013	            0.005581	           -0.255695	           -0.414517	           -0.064257	           -0.138697	           -0.187770	            0.002336	           -0.844626	           -0.232311	            0.006130	           -0.833667	           -0.262858	           -0.038760	           -0.000023
            1.263000	            0.002631	            1.797545	            1.199983	           -0.233013	            0.005581	           -0.255695	           -0.278084	           -0.090994	           -0.338130	            0.095303	           -0.548927	           -0.893645	           -0.232311	            0.006130	           -0.833667	           -0.244244	            0.008571	            0.000138
            1.263500	            0.185793	            1.077108	            1.058869	           -0.233013	            0.005581	           -0.255695	           -0.327741	            0.000945	           -0.198181	           -0.092117	           -0.549436	           -0.940493	           -0.232311	            0.006130	           -0.833667	           -0.187819	           -0.010131	            0.000046
            1.264000	            0.140438	            0.896047	            1.241633	           -0.233013	            0.005581	           -0.255695	           -0.222961	            0.010436	           -0.256743	            0.000877	           -0.364615	           -1.033732	           -0.232311	            0.006130	           -0.833667	           -0.187622	           -0.075964	           -0.094441
            1.264500	           -0.181032	            0.896968	            1.013150	           -0.233013	            0.005581	           -0.255695	           -0.213358	            0.010524	           -0.326844	           -0.094735	            0.186823	           -0.844009	           -0.232311	            0.006130	           -0.833667	           -0.206442	           -0.057395	           -0.018965
            1.265000	            0.140211	            0.896440	            1.149921	           -0.233013	            0.005581	           -0.255695	           -0.256536	           -0.054358	           -0.238139	            0.047850	           -0.365450	           -0.752184	           -0.232311	            0.006130	           -0.833667	           -0.262950	           -0.028837	           -0.131941
            1.265500	            0.048702	            1.797161	            1.291581	           -0.233013	            0.005581	           -0.255695	           -0.300483	           -0.082214	           -0.223293	           -0.327052	           -0.365966	           -0.986665	           -0.232311	            0.006130	           -0.833667	           -0.262740	           -0.067253	            0.037576
